<svg width="27" height="27" viewBox="0 0 27 27" fill="none" xmlns="http://www.w3.org/2000/svg">
<path d="M16.46 13.14C17.8686 12.4331 18.9973 11.2715 19.6636 9.84331C20.3299 8.41512 20.4948 6.80387 20.1316 5.27033C19.7683 3.73679 18.8982 2.3707 17.662 1.39314C16.4259 0.415586 14.896 -0.116226 13.32 -0.116226C11.7441 -0.116226 10.2142 0.415586 8.97805 1.39314C7.74189 2.3707 6.87178 3.73679 6.50853 5.27033C6.14528 6.80387 6.31015 8.41512 6.97646 9.84331C7.64277 11.2715 8.77153 12.4331 10.18 13.14C7.18857 13.9979 4.56625 15.824 2.72401 18.3322C0.881773 20.8404 -0.0762584 23.8889 4.87696e-05 27H26.64C26.7164 23.8889 25.7583 20.8404 23.9161 18.3322C22.0739 15.824 19.4515 13.9979 16.46 13.14Z" fill="#E71356"/>
</svg>
